<svg width="192" height="192" viewBox="0 0 299 87" fill="none" xmlns="http://www.w3.org/2000/svg">
<path d="M18.6888 0.773476L33.4653 17.4775L39.7205 24.4375L43.1608 27.9175L45.5522 30.3535L45.5523 10.8655C45.0374 8.94106 45.3501 9.47348 44.4119 7.03748C43.1269 5.60165 41.9098 2.86148 38.7822 2.14741V0.773476H55.6712V2.14741C53.369 2.41972 51.8154 5.29748 51.2926 5.99348C50.667 6.82622 50.4966 7.09125 50.0415 8.08148C49.6132 9.04694 49.416 9.47348 48.7905 10.8655L48.5237 52.2775H47.1584L10.3367 10.3539L10.0083 26.5255V34.5295V38.3575L10.6338 42.5335C10.6338 43.0551 11.8849 45.6655 13.1359 47.4055C14.5815 48.4205 15.5568 49.7524 17.4039 49.7524L17.4039 51.1263H7.45677e-08L0 49.7524C2.99821 49.7277 3.20077 48.5195 4.37863 47.4055C5.31691 46.0135 6.25519 44.6215 6.88071 42.5335L7.50623 38.3575V34.5295L7.4054 26.5255V6.82622L6.24091 5.48942C5.08982 4.15261 4.07257 3.27379 3.18917 2.85295C2.30577 2.4321 3.53628 2.56299 1.87656 2.51348V0.773476H18.6888Z" fill="#121212"/>
<path d="M84.4255 0.102564C92.4009 -0.194306 98.8747 2.14355 103.847 7.11612C108.844 12.0887 111.342 18.3106 111.342 25.7818C111.342 32.1645 109.484 37.7803 105.767 42.6292C100.844 49.0614 93.8901 52.2775 84.9055 52.2775C75.8963 52.2775 68.9302 49.2098 64.0071 43.0745C60.1179 38.2256 58.1733 32.4738 58.1733 25.8189C58.1733 18.3477 60.6963 12.1258 65.7425 7.15323C70.8132 2.15592 77.0409 -0.194306 84.4255 0.102564ZM84.8686 2.47752C80.2902 2.47752 76.8071 4.82775 74.4194 9.52819C72.4748 13.3875 71.5025 18.9291 71.5025 26.1529C71.5025 34.7374 73.004 41.083 76.0071 45.1897C78.0994 48.0594 81.0286 49.4943 84.7948 49.4943C87.3301 49.4943 89.4471 48.8758 91.1455 47.6389C93.3117 46.0556 94.9978 43.5322 96.204 40.0687C97.4101 36.5805 98.0132 32.0408 98.0132 26.4498C98.0132 19.7949 97.3978 14.8224 96.167 11.5321C94.9363 8.21701 93.3609 5.87916 91.4409 4.51851C89.5455 3.15785 87.3548 2.47752 84.8686 2.47752Z" fill="#121212"/>
<path d="M142.599 0.102564C150.574 -0.194306 157.048 2.14355 162.02 7.11612C167.017 12.0887 169.516 18.3106 169.516 25.7818C169.516 32.1645 167.657 37.7803 163.94 42.6292C159.017 49.0614 152.063 52.2775 143.079 52.2775C134.07 52.2775 127.103 49.2098 122.18 43.0745C118.291 38.2256 116.347 32.4738 116.347 25.8189C116.347 18.3477 118.87 12.1258 123.916 7.15323C128.987 2.15592 135.214 -0.194306 142.599 0.102564ZM143.042 2.47752C138.463 2.47752 134.98 4.82775 132.593 9.52819C130.648 13.3875 129.676 18.9291 129.676 26.1529C129.676 34.7374 131.177 41.083 134.18 45.1897C136.273 48.0594 139.202 49.4943 142.968 49.4943C145.503 49.4943 147.62 48.8758 149.319 47.6389C151.485 46.0556 153.171 43.5322 154.377 40.0687C155.583 36.5805 156.186 32.0408 156.186 26.4498C156.186 19.7949 155.571 14.8224 154.34 11.5321C153.11 8.21701 151.534 5.87916 149.614 4.51851C147.719 3.15785 145.528 2.47752 143.042 2.47752Z" fill="#121212"/>
<path d="M191.409 25.8295L191.722 42.5335C191.722 45.2436 192.523 46.5124 192.85 47.2269C193.598 48.1015 193.806 48.471 194.661 48.8899C195.516 49.3087 194.849 49.1455 197.039 49.5181V50.8855H173.894V49.5181C175.145 49.5181 175.771 49.1455 176.396 48.4495C177.022 47.7535 177.647 47.0575 178.273 46.3615C178.898 45.6655 179.211 44.8956 179.211 42.1855L179.524 9.82148C179.524 7.03748 179.211 4.94948 178.898 4.94948C178.571 4.235 178.586 4.60148 177.647 3.55748C176.792 3.13864 177.335 3.20948 175.145 2.02997V0.773476L197.977 0.947136C204.164 0.947136 207.753 1.19231 210.62 2.02997C213.487 2.86763 216.495 3.72686 218.306 5.99348C220.495 8.08148 221.121 11.5615 220.808 14.5949C220.808 18.2905 217.993 20.2615 215.179 22.3495C213.302 23.3935 207.351 24.0217 204.232 24.7855L207.672 25.8295L210.8 27.2215L213.928 28.9615L216.279 31.7455L221.297 44.1595C222.907 46.3522 223.569 47.5595 224.249 48.1015C225.28 48.8652 226.331 49.4442 227.689 49.5181V50.8855H210.487L209.549 47.7535L207.672 42.5335L206.421 38.1831L204.545 33.6591L202.825 31.1363L201.417 28.9615L199.541 27.0471L197.664 25.8295H191.409ZM191.409 3.90548V23.0455H194.849C198.345 23.0455 199.994 22.9654 201.73 22.3495C203.465 21.7089 204.545 21.3055 205.796 19.9135C207.047 18.5215 207.672 17.2311 207.672 14.5949C207.672 10.7762 207.006 8.50955 205.17 6.6864C203.359 4.86325 200.463 3.90548 196.413 3.90548H191.409Z" fill="#121212"/>
<path d="M250.833 49.5181V50.8855H228.314V49.5181L229.566 49.4935C230.504 49.1455 230.817 48.7975 230.817 48.7975C230.817 48.7975 232.397 47.8951 232.693 47.0575C233.631 44.2735 233.631 44.9695 233.944 42.2682V9.47348C233.944 6.91121 233.864 5.24204 233.631 4.60148C233.398 3.96091 233.322 3.34806 232.602 2.87995C231.903 2.38721 230.951 2.14084 229.744 2.14084L230.191 2.15275V0.773476H249.582V2.14084H249.404C248.018 2.51348 248.018 2.51348 247.393 3.20948C246.929 3.7255 246.663 3.90548 246.455 4.60148C246.142 5.64548 245.829 5.64548 245.829 9.34721V25.8295V42.3117C246.142 44.9695 246.341 45.1059 247.08 46.9682C247.334 47.6087 247.945 48.3047 248.644 48.7975C249.364 49.2656 249.76 49.4688 249.895 49.4935L250.833 49.5181Z" fill="#121212"/>
<path d="M296.809 3.20953L293.681 16.0855L292.457 16.0855C291.63 11.9164 290.866 9.12548 287.739 6.34148C284.518 3.79095 282.744 2.16548 278.982 2.16548C276.074 2.16548 273.498 3.60069 271.788 4.94953C270.106 6.27384 269.286 7.7323 269.286 9.47353C269.286 10.5771 269.286 12.6055 269.599 13.6495C270.425 14.8022 270.277 15.3054 272.101 16.4335C273.44 17.2428 276.013 17.5055 280.858 19.5655C289.018 20.7449 294.443 23.975 296.809 26.5255C299.146 29.0761 298.998 33.7249 298.998 37.0111C298.998 41.1803 297.103 44.7731 293.312 47.7896C289.55 50.7815 284.761 52.2775 278.947 52.2775C277.122 52.2775 275.541 52.2775 273.665 52.2775C272.04 51.9587 271.475 52.2775 268.66 51.9295C267.292 51.439 266.704 51.5594 265.533 51.2335C264.282 50.8855 264.131 51.0783 262.718 50.5375C262.718 50.5375 262.405 50.5375 260.216 49.7025L255.525 47.4585L258.965 33.4061H259.921C261.175 38.7033 263.534 43.2178 267.097 46.0135C270.688 48.7848 272.034 49.8415 276.167 49.8415C279.359 49.8415 283.043 48.5535 284.924 47.0575C286.834 45.5615 287.352 43.5674 288.052 42.0111C288.364 41.3151 288.273 39.6174 288.052 38.8791C287.739 37.8351 288.052 36.2695 285.549 34.1815C284.067 33.176 281.18 32.6436 277.418 31.0495C272.145 28.8178 266.278 28.7911 263.969 27.2215C261.66 25.652 260.219 23.2429 258.965 21.3055C257.739 19.3681 257.714 16.6753 257.714 14.3455C257.714 10.3726 260.078 7.06696 263.47 4.27118C266.862 1.47541 270.862 0.0774733 276.021 0.0774733C277.902 0.0774733 281.484 -0.096847 283.36 0.0774813C285.862 0.599153 287.54 0.773481 288.677 1.12153C289.928 1.46948 291.207 1.56427 292.117 1.81748C293.368 2.16548 292.743 1.95668 293.681 2.16548C295.245 2.51348 294.619 2.51348 294.932 2.51353L296.809 3.20953Z" fill="#121212"/>
<path d="M183.021 76.3398C185.208 76.7556 185.833 77.0127 186.717 77.604C187.987 78.4447 188.907 79.7444 188.907 81.084C188.907 82.4976 188.424 83.9943 187.03 84.9182C185.319 86.0361 183.242 86.304 179.978 86.304H169.516V85.5556C170.581 85.5556 170.05 85.7127 170.424 85.5556C170.809 85.3893 171.075 85.1769 171.223 84.9182C171.381 84.6595 171.461 84.022 171.461 83.0057V70.8103C171.461 69.794 171.381 69.1565 171.223 68.8978C171.075 68.6299 170.809 68.4174 170.424 68.2604C170.038 68.1033 169.319 68.0248 168.265 68.0248V67.512H179.315C181.956 67.512 183.826 67.706 184.925 68.0941C186.025 68.4728 186.396 68.8332 187.03 69.6C187.665 70.3576 187.759 71.3646 187.759 72.2239C187.759 73.1293 187.209 74.1086 186.405 74.82C185.6 75.5222 185.05 75.9241 183.021 76.3398ZM176.396 75.864C178.006 75.864 179.627 75.8178 180.386 75.5222C181.157 75.2265 181.746 74.8108 182.154 74.2749C182.562 73.739 182.766 73.0554 182.766 72.2239C182.766 71.3924 182.562 70.7133 182.154 70.1867C181.757 69.6508 181.185 69.2443 180.437 68.9671C179.689 68.69 178.051 68.5468 176.396 68.556V75.864ZM176.396 76.56V83.172L176.833 84.3195C177.022 84.564 176.969 84.6456 177.275 84.9043C177.592 85.1538 178.057 85.2785 178.669 85.2785C179.576 85.2785 180.409 85.1168 181.168 84.7934C181.939 84.4608 182.528 83.985 182.936 83.366C183.344 82.7378 183.548 82.0402 183.548 81.2734C183.548 80.3957 183.299 79.6104 182.8 78.9175C182.301 78.2153 181.648 77.5332 180.775 77.256C179.902 76.9788 178.13 76.5508 176.396 76.56Z" fill="#121212"/>
<path d="M201.737 78.648H196.1L194.589 82.7274C194.313 83.347 194.175 83.8586 194.175 84.2623C194.175 84.7973 194.401 85.1916 194.854 85.4451C195.12 85.5953 195.369 85.5329 196.413 85.608V86.304H190.158V85.783C190.877 85.6797 191.467 85.3981 191.93 84.9382C192.393 84.4688 192.964 83.5066 193.643 82.0516L200.806 66.816H201.087L208.309 82.474C208.998 83.9572 209.565 84.8912 210.008 85.2761C210.342 85.5671 210.487 85.608 210.8 85.783V86.304H202.043L202.136 85.783C202.913 85.783 203.46 85.6797 203.775 85.4732C203.992 85.323 204.1 85.1071 204.1 84.8255C204.1 84.6565 204.07 84.4829 204.011 84.3045C203.992 84.22 203.844 83.868 203.568 83.2484L201.737 78.648ZM201.104 77.952L198.915 73.08L196.726 77.952H201.104Z" fill="#121212"/>
<path d="M218.568 76.908L218.684 83.172C218.684 84.1883 218.983 84.6641 219.104 84.932C219.383 85.26 219.46 85.3986 219.778 85.5556C220.096 85.7127 219.848 85.6515 220.663 85.7912V86.304H212.051V85.7912C212.516 85.7912 212.749 85.6515 212.982 85.3905C213.215 85.1295 213.447 84.8685 213.68 84.6075C213.913 84.3465 214.029 84.0578 214.029 83.0415L214.146 70.905C214.146 69.861 214.029 69.078 213.913 69.078C213.791 68.8101 213.797 68.9475 213.447 68.556C213.129 68.3989 213.331 68.4255 212.516 67.9832V67.512L221.012 67.5771C223.314 67.5771 224.649 67.6691 225.716 67.9832C226.783 68.2973 227.902 68.6195 228.576 69.4695C229.391 70.2525 229.624 71.5575 229.507 72.695C229.507 74.0809 228.46 74.82 227.413 75.603C226.714 75.9945 224.5 76.2301 223.339 76.5165L224.62 76.908L225.783 77.43L226.947 78.0825L227.822 79.1265L229.689 83.7818C230.288 84.604 230.535 85.0567 230.787 85.26C231.171 85.5464 231.562 85.7635 232.068 85.7912V86.304H225.667L225.318 85.1295L224.62 83.172L224.154 81.5406L223.456 79.8441L222.816 78.8981L222.292 78.0825L221.594 77.3646L220.896 76.908H218.568ZM218.568 68.6865V75.864H219.848C221.149 75.864 221.763 75.834 222.408 75.603C223.054 75.3628 223.456 75.2115 223.921 74.6895C224.387 74.1675 224.62 73.6836 224.62 72.695C224.62 71.263 224.372 70.413 223.689 69.7293C223.015 69.0457 221.937 68.6865 220.43 68.6865H218.568Z" fill="#121212"/>
<path d="M78.8154 75.516L81.943 76.56L84.4451 78.648L86.6344 82.7978C87.2599 84.216 87.5727 84.9875 87.8854 85.26C88.2937 85.5556 88.3692 85.7912 88.8237 85.7912V86.304H82.5685V85.608C82.5685 85.26 82.5685 85.1153 82.5685 84.912C82.5685 84.524 82.5685 83.52 81.943 82.476L80.3792 79.692L78.8154 77.256H76.9389V77.952V83.172C76.9389 84.1513 76.9389 84.564 76.9389 84.912C77.0313 85.1522 77.3025 85.4325 77.5644 85.608C77.8771 85.608 78.2377 85.608 78.8154 85.608V86.304H70.6837V85.608H71.3092C71.7636 85.608 71.6086 85.6166 71.6219 85.608C71.8222 85.4787 72.1396 85.2261 72.2475 84.912C72.3322 84.6903 72.5602 84.0312 72.5602 83.0888V70.7272C72.5602 69.7663 72.6449 69.3038 72.5602 69.0635C72.4755 68.8233 72.5054 68.4775 72.2435 68.3019C71.9893 68.1172 71.6427 68.0248 71.2036 68.0248H70.6837V67.512H78.4827V68.0248C77.9512 68.0248 77.5468 68.1172 77.2695 68.3019C77.0693 68.4313 77.0544 68.5991 76.9389 68.904C76.9389 69.252 76.9389 69.6924 76.9389 70.644V75.864L82.2558 70.644C82.732 70.1141 82.6644 69.3826 82.605 69.0635C82.5863 68.9635 82.5685 68.904 82.5685 68.904C82.5685 68.904 82.5685 68.556 82.1852 68.3851C82.1852 68.3851 81.9876 68.2357 81.3175 68.208V67.512H88.038V68.0248C87.4911 68.071 87.0598 68.1911 86.744 68.3851C86.4359 68.5699 85.7195 69.2073 84.5949 70.2975L78.8154 75.516Z" fill="#121212"/>
<path d="M120.725 75.516L123.853 76.56L126.042 78.3L128.544 82.7978C129.17 84.216 129.482 84.9875 129.795 85.26C130.203 85.5556 130.279 85.7912 130.733 85.7912V86.304H124.478V85.608C124.478 85.26 124.478 85.1153 124.478 84.912C124.478 84.524 124.478 83.52 123.853 82.476L122.289 79.692L120.725 77.256H118.849V77.952V83.172C118.849 84.1513 118.849 84.564 118.849 84.912C118.941 85.1522 119.212 85.4325 119.474 85.608C119.787 85.608 120.147 85.608 120.725 85.608V86.304H112.593V85.608H113.219C113.673 85.608 113.518 85.6166 113.532 85.608C113.732 85.4787 114.049 85.2261 114.157 84.912C114.242 84.6903 114.47 84.0312 114.47 83.0888V70.7272C114.47 69.7663 114.555 69.3038 114.47 69.0635C114.385 68.8233 114.415 68.4775 114.153 68.3019C113.899 68.1172 113.552 68.0248 113.113 68.0248H112.593V67.512H120.393V68.0248C119.861 68.0248 119.457 68.1172 119.179 68.3019C118.979 68.4313 118.964 68.5991 118.849 68.904C118.849 69.252 118.849 69.6924 118.849 70.644V75.864L124.166 70.644C124.642 70.1141 124.574 69.3826 124.515 69.0635C124.496 68.9635 124.478 68.904 124.478 68.904C124.478 68.904 124.478 68.556 124.095 68.3851C124.095 68.3851 123.897 68.2357 123.227 68.208V67.512H129.948V68.0248C129.401 68.071 128.97 68.1911 128.654 68.3851C128.346 68.5699 127.629 69.2073 126.505 70.2975L120.725 75.516Z" fill="#121212"/>
<path d="M100.226 66.8257C103.309 66.7109 105.813 67.6149 107.735 69.5376C109.667 71.4603 110.633 73.8661 110.633 76.755C110.633 79.223 109.915 81.3944 108.478 83.2693C106.574 85.7564 103.885 87 100.411 87C96.9277 87 94.2341 85.8138 92.3305 83.4415C90.8267 81.5666 90.0747 79.3426 90.0747 76.7694C90.0747 73.8805 91.0503 71.4747 93.0015 69.552C94.9622 67.6197 97.3702 66.7109 100.226 66.8257ZM100.397 67.744C98.6266 67.744 97.2798 68.6528 96.3566 70.4703C95.6047 71.9625 95.2287 74.1053 95.2287 76.8985C95.2287 80.2178 95.8093 82.6715 96.9705 84.2594C97.7795 85.369 98.9121 85.9238 100.368 85.9238C101.349 85.9238 102.167 85.6847 102.824 85.2064C103.662 84.5942 104.314 83.6185 104.78 82.2793C105.246 80.9305 105.48 79.1752 105.48 77.0133C105.48 74.4401 105.242 72.5174 104.766 71.2451C104.29 69.9633 103.681 69.0593 102.938 68.5332C102.205 68.0071 101.358 67.744 100.397 67.744Z" fill="#121212"/>
<ellipse cx="97.2682" cy="62.988" rx="2.18932" ry="2.436" fill="#121212"/>
<ellipse cx="103.523" cy="62.988" rx="2.18932" ry="2.436" fill="#121212"/>
<path d="M152.001 76.5413L155.441 76.4589L157.631 76.5413V77.9019C157.318 77.952 157.005 78.996 157.005 78.996C157.005 78.996 156.431 80.2766 156.38 80.388C155.893 81.4417 155.754 81.78 155.754 82.128C155.754 83.1519 155.94 83.549 156.067 83.868C156.409 84.0971 156.38 84.216 157.005 84.564C157.631 84.912 157.631 84.8698 159.507 85.5844L160.133 86.2991C158.882 86.304 157.631 86.304 156.885 86.2991C155.754 86.304 155.508 86.304 154.816 86.304C154.503 85.956 154.503 85.956 153.878 85.608C153.565 85.608 152.939 85.26 152.001 85.608C151.05 86.3776 150.023 86.6518 149.186 87C148.248 87 146.996 87 146.091 87C144.646 87 143.497 86.5281 142.645 85.5844C141.793 84.6407 141.367 83.5321 141.367 82.2586C141.367 80.8842 141.492 80.709 142.306 79.692C142.618 79.344 143.639 77.201 145.19 76.4589C145.12 76.212 145.038 75.9962 144.939 75.4281C144.894 75.168 144.182 73.6114 144.182 73.08C144.182 71.614 144.691 70.3554 145.543 69.3842C146.403 68.4038 148.776 67.512 150.107 67.512C151.18 67.512 152.028 67.8373 152.652 68.4878C153.283 69.1291 153.599 69.8804 153.599 70.7417C153.599 71.777 153.276 72.6657 152.629 73.4079C151.99 74.1409 150.975 74.8143 149.583 75.4281C150.442 77.2514 151.701 79.2167 153.359 81.324C154.478 79.8123 154.503 80.4251 154.503 79.344C154.503 78.9592 154.098 78.5657 153.878 78.3C153.657 78.0251 152.427 77.9569 152.001 77.9019V76.5413ZM148.874 75.168C148.874 75.168 150.125 74.82 150.437 73.776C150.75 73.428 150.75 72.036 150.75 72.036C150.75 71.0098 150.573 70.6535 150.125 69.948C149.828 69.4807 149.119 68.9825 148.685 68.9825C148.328 68.9825 147.568 69.0452 147.31 69.3842C147.059 69.7232 146.821 70.0668 146.821 70.644C146.821 71.0929 146.875 72.2189 146.997 72.732C147.119 73.2451 147.623 74.472 148.874 75.168ZM146.684 77.952C146.684 77.952 146.388 78.1263 146.137 78.4744C146.059 78.5791 145.746 78.7118 145.746 79.344C145.746 80.2052 145.648 81.6239 146.059 82.476C146.477 83.3281 146.7 83.6809 146.997 84.216C147.583 84.6833 147.924 84.8698 148.51 84.8698C148.799 84.8698 149.767 85.0586 150.125 84.912C150.803 84.8698 151.688 84.912 152.001 84.216C150.168 81.9529 147.658 80.3891 146.684 77.952Z" fill="#121212"/>
</svg>
